<svg xmlns="http://www.w3.org/2000/svg" version="1.1" xmlns:xlink="http://www.w3.org/1999/xlink" xmlns:svgjs="http://svgjs.dev/svgjs" width="1920" height="1280" preserveAspectRatio="none" viewBox="0 0 1920 1280"><g mask="url(&quot;#SvgjsMask1016&quot;)" fill="none"><rect width="1920" height="1280" x="0" y="0" fill="#0e2a47"></rect><path d="M0,503.053C102.11,484.531,214.827,526.172,303.457,472.189C392.671,417.85,413.452,302.063,472.01,215.56C545.072,107.631,692.936,31.058,690.288,-99.248C687.678,-227.704,564.575,-324.197,459.539,-398.192C368.09,-462.615,253.405,-470.864,142.461,-485.177C47.224,-497.463,-45.275,-493.398,-139.616,-475.489C-243.409,-455.786,-364.981,-456.046,-433.702,-375.805C-502.395,-295.597,-480.671,-175.424,-486.888,-70.004C-492.587,26.638,-483.307,118.28,-468.48,213.948C-448.045,345.798,-497.087,526.736,-383.543,596.805C-269.226,667.351,-132.175,527.028,0,503.053" fill="#0b2239"></path><path d="M1920 1809.808C2016.051 1792.637 2085.095 1717.291 2168.716 1667.01 2255.503 1614.825 2371.756 1597.31 2420.774 1508.696 2470.342 1419.087 2455.328 1304.806 2422.7799999999997 1207.711 2393.073 1119.091 2311.369 1064.522 2248.648 995.225 2187.511 927.678 2142.112 843.712 2059.182 805.99 1970.103 765.47 1868.035 756.131 1772.8319999999999 778.79 1674.855 802.1089999999999 1583.952 855.6379999999999 1520.835 934.121 1458.873 1011.1669999999999 1435.181 1110.573 1426.779 1209.086 1418.723 1303.542 1444.887 1393.468 1473.963 1483.698 1506.656 1585.152 1520.67 1704.568 1606.716 1767.479 1693.54 1830.958 1814.124 1828.7359999999999 1920 1809.808" fill="#113255"></path></g><defs><mask id="SvgjsMask1016"><rect width="1920" height="1280" fill="#ffffff"></rect></mask></defs></svg>